<svg id="Layer_1" data-name="Layer 1" xmlns="http://www.w3.org/2000/svg" viewBox="0 0 205.87 201.44"><path d="M394.81,401.76c3.53,35.83-28,71.38-70.64,79.4,0,4.28.05,8.71,0,13.15-.09,6.63-3.53,10.28-10.11,10.32q-22,.15-44,0c-6.53-.05-10-3.74-10-10.4,0-4.31,0-8.62,0-13.25-24.69-3.77-44.24-15.48-58-36.18-8.87-13.32-13.92-30.83-12.56-43Z" transform="translate(-189.21 -303.27)"/><path d="M314.8,328.58c-1.34,11.59-2.67,23-4,34.36-.27,2.31-.61,4.62-.73,6.94-.38,7.56,1.93,11.08,7.62,11.78A13.24,13.24,0,0,0,332.08,372c.49-1.95,1.24-4.3,2.68-5.45,2.89-2.3,6.33.19,6.46,4.39.29,8.89-9,18.82-18.57,19.83-13.56,1.45-22.37-6.39-21.62-20,.53-9.61,2.7-19.13,3-28.74.37-10.55-.44-21.15-.93-31.71-.14-2.95-.74-5.94,3-6.82s5.46,1.63,5.95,4.95C313.1,315.15,313.92,321.9,314.8,328.58Z" transform="translate(-189.21 -303.27)"/><path d="M395,306.56v13.85H321.15c-.55-3.84-1.09-7.57-1.68-11.59Z" transform="translate(-189.21 -303.27)"/><path d="M321.19,339.31V328.07h73.65v12.79Z" transform="translate(-189.21 -303.27)"/><path d="M289.93,394.07c-7.74,1.05-8.24,1-7.81-7.36q1-20.15,3.3-40.2c1.38-12.3,2.34-24.5-.64-36.67-.73-3-.47-5.45,2.81-6.34,3.5-.94,5.16,1.08,6,4.28,3.16,12.31,2.5,24.72,1.23,37.18C293.17,361.11,291.6,377.28,289.93,394.07Z" transform="translate(-189.21 -303.27)"/><path d="M271.77,394.12h-7.21c0-9.42-.42-18.8.09-28.13.83-15.07,2.4-30.1,3.33-45.16.21-3.4-.72-6.93-1.48-10.31s-.82-6.22,3.13-7.06c3.53-.75,5.27,1.5,5.62,4.74.79,7.24,2.4,14.56,1.94,21.74C275.85,351.25,273.66,372.5,271.77,394.12Z" transform="translate(-189.21 -303.27)"/><path d="M255,394.17h-9.47c0-7.19-.47-14.27.09-21.28,1.19-15.07,3.21-30.07,4.26-45.15.38-5.53-1-11.2-1.68-16.79-.4-3.21-1.33-6.73,3.2-7.51,4.32-.75,5,2.6,5.81,5.83,3,12.88,2.07,25.78.48,38.7C255.85,363.12,252.79,378.2,255,394.17Z" transform="translate(-189.21 -303.27)"/><path d="M241.13,310.42l1.6,10.24c-7.4,0-14.34.32-21.21-.21-1.8-.14-3.39-2.92-5.07-4.48,1.56-1.5,3-4.09,4.71-4.31C227.67,310.83,234.29,310.78,241.13,310.42Z" transform="translate(-189.21 -303.27)"/><path d="M242.77,327.76a10.83,10.83,0,0,1,.25,1.06c.37,8.49.37,8.47-8,8.15-4.16-.16-8.42.3-12.43-.53-2.26-.46-4.1-3-6.13-4.58,2-1.37,4-3.74,6.15-3.91C229.23,327.44,235.89,327.76,242.77,327.76Z" transform="translate(-189.21 -303.27)"/></svg>